<svg width="1190" height="470" viewBox="0 0 1190 470" fill="none" xmlns="http://www.w3.org/2000/svg">
<path d="M686.147 303.42C682.781 304.032 677.733 304.797 671.003 305.715C664.578 306.938 658 307.55 651.269 307.55C644.538 307.55 638.42 307.091 632.913 306.173C627.711 305.256 623.275 303.42 619.604 300.666C615.933 297.913 613.026 294.242 610.885 289.652C609.049 284.757 608.131 278.486 608.131 270.837V4.66544C611.496 4.05354 616.392 3.28868 622.816 2.37086C629.547 1.14708 636.278 0.535192 643.009 0.535192C649.739 0.535192 655.705 0.994102 660.906 1.91192C666.413 2.82976 671.003 4.66543 674.674 7.41893C678.345 10.1724 681.099 13.9967 682.934 18.8918C685.076 23.481 686.147 29.5999 686.147 37.2485V303.42ZM816.761 227.24C816.761 235.194 819.209 240.854 824.104 244.22C829.305 247.585 836.495 249.268 845.673 249.268C850.262 249.268 855.004 248.962 859.899 248.35C864.795 247.432 869.078 246.361 872.749 245.138C875.503 248.503 877.797 252.327 879.633 256.611C881.774 260.588 882.845 265.483 882.845 271.296C882.845 282.922 878.409 292.406 869.537 299.749C860.97 307.091 845.673 310.763 823.645 310.763C796.722 310.763 775.918 304.644 761.232 292.406C746.853 280.168 739.663 260.282 739.663 232.747V36.3307C743.029 35.4128 747.771 34.495 753.89 33.5772C760.315 32.3534 767.045 31.7415 774.082 31.7415C787.544 31.7415 797.946 34.189 805.288 39.0842C812.937 43.6733 816.761 53.6165 816.761 68.9137V98.2844H876.879C878.715 101.65 880.398 105.933 881.927 111.134C883.763 116.029 884.681 121.536 884.681 127.655C884.681 138.363 882.233 146.165 877.338 151.06C872.749 155.649 866.477 157.943 858.523 157.943H816.761V227.24ZM1154.01 192.362C1154.01 211.331 1151.1 228.311 1145.29 243.302C1139.47 257.987 1131.21 270.378 1120.51 280.474C1110.1 290.57 1097.56 298.219 1082.87 303.42C1068.19 308.621 1051.82 311.222 1033.77 311.222C1015.72 311.222 999.352 308.468 984.666 302.961C969.981 297.454 957.284 289.652 946.576 279.556C936.174 269.154 928.067 256.611 922.254 241.925C916.441 227.24 913.534 210.719 913.534 192.362C913.534 174.312 916.441 157.943 922.254 143.258C928.067 128.573 936.174 116.182 946.576 106.086C957.284 95.6838 969.981 87.7293 984.666 82.2223C999.352 76.7153 1015.72 73.9618 1033.77 73.9618C1051.82 73.9618 1068.19 76.8683 1082.87 82.6812C1097.56 88.1882 1110.1 96.1428 1120.51 106.545C1131.21 116.641 1139.47 129.032 1145.29 143.717C1151.1 158.402 1154.01 174.617 1154.01 192.362ZM993.386 192.362C993.386 211.025 996.904 225.404 1003.94 235.5C1011.28 245.291 1021.38 250.186 1034.23 250.186C1047.08 250.186 1056.87 245.138 1063.6 235.041C1070.64 224.945 1074.15 210.719 1074.15 192.362C1074.15 174.006 1070.64 159.932 1063.6 150.142C1056.56 140.046 1046.62 134.998 1033.77 134.998C1020.92 134.998 1010.98 140.046 1003.94 150.142C996.904 159.932 993.386 174.006 993.386 192.362Z" fill="white"/>
<path d="M686.147 303.42C682.781 304.032 677.733 304.797 671.003 305.715C664.578 306.938 658 307.55 651.269 307.55C644.538 307.55 638.42 307.091 632.913 306.173C627.711 305.256 623.275 303.42 619.604 300.666C615.933 297.913 613.026 294.242 610.885 289.652C609.049 284.757 608.131 278.486 608.131 270.837V4.66544C611.496 4.05354 616.392 3.28868 622.816 2.37086C629.547 1.14708 636.278 0.535192 643.009 0.535192C649.739 0.535192 655.705 0.994102 660.906 1.91192C666.413 2.82976 671.003 4.66543 674.674 7.41893C678.345 10.1724 681.099 13.9967 682.934 18.8918C685.076 23.481 686.147 29.5999 686.147 37.2485V303.42ZM816.761 227.24C816.761 235.194 819.209 240.854 824.104 244.22C829.305 247.585 836.495 249.268 845.673 249.268C850.262 249.268 855.004 248.962 859.899 248.35C864.795 247.432 869.078 246.361 872.749 245.138C875.503 248.503 877.797 252.327 879.633 256.611C881.774 260.588 882.845 265.483 882.845 271.296C882.845 282.922 878.409 292.406 869.537 299.749C860.97 307.091 845.673 310.763 823.645 310.763C796.722 310.763 775.918 304.644 761.232 292.406C746.853 280.168 739.663 260.282 739.663 232.747V36.3307C743.029 35.4128 747.771 34.495 753.89 33.5772C760.315 32.3534 767.045 31.7415 774.082 31.7415C787.544 31.7415 797.946 34.189 805.288 39.0842C812.937 43.6733 816.761 53.6165 816.761 68.9137V98.2844H876.879C878.715 101.65 880.398 105.933 881.927 111.134C883.763 116.029 884.681 121.536 884.681 127.655C884.681 138.363 882.233 146.165 877.338 151.06C872.749 155.649 866.477 157.943 858.523 157.943H816.761V227.24ZM1154.01 192.362C1154.01 211.331 1151.1 228.311 1145.29 243.302C1139.47 257.987 1131.21 270.378 1120.51 280.474C1110.1 290.57 1097.56 298.219 1082.87 303.42C1068.19 308.621 1051.82 311.222 1033.77 311.222C1015.72 311.222 999.352 308.468 984.666 302.961C969.981 297.454 957.284 289.652 946.576 279.556C936.174 269.154 928.067 256.611 922.254 241.925C916.441 227.24 913.534 210.719 913.534 192.362C913.534 174.312 916.441 157.943 922.254 143.258C928.067 128.573 936.174 116.182 946.576 106.086C957.284 95.6838 969.981 87.7293 984.666 82.2223C999.352 76.7153 1015.72 73.9618 1033.77 73.9618C1051.82 73.9618 1068.19 76.8683 1082.87 82.6812C1097.56 88.1882 1110.1 96.1428 1120.51 106.545C1131.21 116.641 1139.47 129.032 1145.29 143.717C1151.1 158.402 1154.01 174.617 1154.01 192.362ZM993.386 192.362C993.386 211.025 996.904 225.404 1003.94 235.5C1011.28 245.291 1021.38 250.186 1034.23 250.186C1047.08 250.186 1056.87 245.138 1063.6 235.041C1070.64 224.945 1074.15 210.719 1074.15 192.362C1074.15 174.006 1070.64 159.932 1063.6 150.142C1056.56 140.046 1046.62 134.998 1033.77 134.998C1020.92 134.998 1010.98 140.046 1003.94 150.142C996.904 159.932 993.386 174.006 993.386 192.362Z" fill="url(#paint0_linear_567_1205)"/>
<path d="M107.845 241.8C112.129 243.023 117.636 243.941 124.366 244.553C131.097 244.859 137.522 245.012 143.641 245.012C155.879 245.012 165.975 242.564 173.929 237.669C182.19 232.468 186.32 224.514 186.32 213.806C186.32 203.709 182.955 196.52 176.224 192.237C169.493 187.953 159.244 185.812 145.476 185.812H107.845V241.8ZM107.845 129.824H141.346C154.502 129.824 163.986 127.376 169.799 122.481C175.918 117.586 178.977 110.396 178.977 100.912C178.977 92.6517 175.459 86.0739 168.422 81.1788C161.692 76.2837 151.442 73.8361 137.675 73.8361C133.086 73.8361 127.732 73.9891 121.613 74.295C115.8 74.601 111.211 75.0599 107.845 75.6718V129.824ZM137.675 306.507C132.474 306.507 126.355 306.354 119.318 306.048C112.282 305.742 104.939 305.13 97.2903 304.212C89.9476 303.294 82.6049 302.071 75.2623 300.541C67.9196 299.317 61.1888 297.481 55.07 295.034C38.243 288.609 29.8296 277.442 29.8296 261.533V47.219C29.8296 40.7941 31.5123 35.899 34.8776 32.5336C38.549 28.8623 43.4441 25.9558 49.563 23.8142C59.9651 20.1429 72.9677 17.5424 88.5709 16.0127C104.174 14.177 120.236 13.2592 136.757 13.2592C175.918 13.2592 206.053 19.837 227.164 32.9926C248.274 46.1482 258.829 66.4935 258.829 94.0284C258.829 107.796 254.852 119.728 246.897 129.824C238.942 139.614 228.234 146.804 214.773 151.393C230.07 155.676 242.767 163.478 252.863 174.798C263.265 186.118 268.466 200.344 268.466 217.477C268.466 247.765 257.146 270.252 234.506 284.938C212.172 299.317 179.895 306.507 137.675 306.507Z" fill="white"/>
<path d="M107.845 241.8C112.129 243.023 117.636 243.941 124.366 244.553C131.097 244.859 137.522 245.012 143.641 245.012C155.879 245.012 165.975 242.564 173.929 237.669C182.19 232.468 186.32 224.514 186.32 213.806C186.32 203.709 182.955 196.52 176.224 192.237C169.493 187.953 159.244 185.812 145.476 185.812H107.845V241.8ZM107.845 129.824H141.346C154.502 129.824 163.986 127.376 169.799 122.481C175.918 117.586 178.977 110.396 178.977 100.912C178.977 92.6517 175.459 86.0739 168.422 81.1788C161.692 76.2837 151.442 73.8361 137.675 73.8361C133.086 73.8361 127.732 73.9891 121.613 74.295C115.8 74.601 111.211 75.0599 107.845 75.6718V129.824ZM137.675 306.507C132.474 306.507 126.355 306.354 119.318 306.048C112.282 305.742 104.939 305.13 97.2903 304.212C89.9476 303.294 82.6049 302.071 75.2623 300.541C67.9196 299.317 61.1888 297.481 55.07 295.034C38.243 288.609 29.8296 277.442 29.8296 261.533V47.219C29.8296 40.7941 31.5123 35.899 34.8776 32.5336C38.549 28.8623 43.4441 25.9558 49.563 23.8142C59.9651 20.1429 72.9677 17.5424 88.5709 16.0127C104.174 14.177 120.236 13.2592 136.757 13.2592C175.918 13.2592 206.053 19.837 227.164 32.9926C248.274 46.1482 258.829 66.4935 258.829 94.0284C258.829 107.796 254.852 119.728 246.897 129.824C238.942 139.614 228.234 146.804 214.773 151.393C230.07 155.676 242.767 163.478 252.863 174.798C263.265 186.118 268.466 200.344 268.466 217.477C268.466 247.765 257.146 270.252 234.506 284.938C212.172 299.317 179.895 306.507 137.675 306.507Z" fill="url(#paint1_linear_567_1205)"/>
<path d="M500.605 184.961L581.604 127.886C583.474 126.568 583.138 123.702 581.014 122.853C579.726 122.337 578.292 122.316 576.989 122.793L288.824 228.316C286.793 229.232 287.753 232.294 289.943 231.888L352.567 220.282C357.949 219.285 362.466 224.361 360.849 229.591L342.303 289.588C340.214 296.344 348.011 301.811 353.651 297.545L432.343 238.02C434.921 236.07 438.476 236.053 441.073 237.979L518.665 295.539C524.4 299.794 532.195 294.109 529.896 287.348L497.905 193.256C496.865 190.198 497.964 186.821 500.605 184.961Z" fill="white"/>
<path d="M500.605 184.961L581.604 127.886C583.474 126.568 583.138 123.702 581.014 122.853C579.726 122.337 578.292 122.316 576.989 122.793L288.824 228.316C286.793 229.232 287.753 232.294 289.943 231.888L352.567 220.282C357.949 219.285 362.466 224.361 360.849 229.591L342.303 289.588C340.214 296.344 348.011 301.811 353.651 297.545L432.343 238.02C434.921 236.07 438.476 236.053 441.073 237.979L518.665 295.539C524.4 299.794 532.195 294.109 529.896 287.348L497.905 193.256C496.865 190.198 497.964 186.821 500.605 184.961Z" fill="url(#paint2_linear_567_1205)"/>
<path d="M316.285 146.178L281.929 122.679C279.426 120.967 280.589 117.051 283.621 116.984L397.192 114.474C398.526 114.444 399.693 113.57 400.097 112.299L434.058 5.4079C434.981 2.50524 439.089 2.50797 440.007 5.41186L473.793 112.245C474.204 113.543 475.408 114.425 476.769 114.425H576.018C576.271 114.425 576.513 114.525 576.692 114.704C577.001 115.012 576.818 115.541 576.384 115.594L318.42 146.701C317.668 146.791 316.909 146.606 316.285 146.178Z" fill="white"/>
<path d="M316.285 146.178L281.929 122.679C279.426 120.967 280.589 117.051 283.621 116.984L397.192 114.474C398.526 114.444 399.693 113.57 400.097 112.299L434.058 5.4079C434.981 2.50524 439.089 2.50797 440.007 5.41186L473.793 112.245C474.204 113.543 475.408 114.425 476.769 114.425H576.018C576.271 114.425 576.513 114.525 576.692 114.704C577.001 115.012 576.818 115.541 576.384 115.594L318.42 146.701C317.668 146.791 316.909 146.606 316.285 146.178Z" fill="url(#paint3_linear_567_1205)"/>
<path d="M576.288 117.778L270.107 178.576C269.076 178.78 269.225 180.298 270.276 180.298L353.445 171.834C356.508 171.523 359.302 173.604 359.88 176.628C360.539 180.078 364.033 182.206 367.401 181.208L576.64 119.205C577.238 119.027 577.358 118.233 576.839 117.887C576.677 117.779 576.479 117.74 576.288 117.778Z" fill="white"/>
<path d="M576.288 117.778L270.107 178.576C269.076 178.78 269.225 180.298 270.276 180.298L353.445 171.834C356.508 171.523 359.302 173.604 359.88 176.628C360.539 180.078 364.033 182.206 367.401 181.208L576.64 119.205C577.238 119.027 577.358 118.233 576.839 117.887C576.677 117.779 576.479 117.74 576.288 117.778Z" fill="url(#paint4_linear_567_1205)"/>
<rect x="0.496094" y="352.701" width="1188.68" height="116.545" rx="33.0156" fill="white"/>
<path d="M51.628 439.883C47.7374 439.883 44.3269 438.898 41.3964 436.927C38.4658 434.957 36.3437 432.279 35.0301 428.894L39.8048 426.62C40.9669 429.096 42.5837 431.066 44.6553 432.532C46.7774 433.997 49.1016 434.729 51.628 434.729C54.0532 434.729 56.0995 434.148 57.7669 432.986C59.4343 431.774 60.268 430.207 60.268 428.287C60.268 426.873 59.8638 425.761 59.0553 424.953C58.2469 424.094 57.3122 423.437 56.2511 422.982C55.1901 422.527 54.2553 422.199 53.4469 421.997L47.6111 420.329C43.8722 419.268 41.169 417.778 39.5016 415.858C37.8343 413.938 37.0006 411.715 37.0006 409.188C37.0006 406.814 37.6069 404.742 38.8195 402.974C40.0322 401.205 41.6743 399.841 43.7458 398.881C45.8174 397.921 48.1164 397.441 50.6427 397.441C54.0785 397.441 57.1859 398.35 59.9648 400.169C62.7943 401.938 64.7901 404.414 65.9522 407.597L61.1017 409.87C60.0911 407.597 58.6259 405.828 56.7059 404.565C54.8364 403.251 52.7395 402.595 50.4153 402.595C48.1416 402.595 46.3227 403.176 44.9585 404.338C43.5943 405.5 42.9122 406.965 42.9122 408.734C42.9122 410.098 43.2658 411.184 43.9732 411.993C44.6806 412.801 45.489 413.407 46.3985 413.812C47.3585 414.216 48.1922 414.519 48.8995 414.721L55.6448 416.692C58.929 417.652 61.4806 419.142 63.2996 421.163C65.169 423.184 66.1038 425.559 66.1038 428.287C66.1038 430.51 65.4722 432.506 64.209 434.275C62.9964 436.043 61.3038 437.433 59.1311 438.443C56.9585 439.403 54.4574 439.883 51.628 439.883ZM91.0484 439.883C88.2189 439.883 85.6421 439.226 83.3179 437.913C80.9937 436.548 79.1495 434.679 77.7852 432.304C76.4716 429.879 75.8147 427.1 75.8147 423.967V398.35H81.4989V423.285C81.4989 425.458 81.9284 427.378 82.7874 429.045C83.6968 430.662 84.9347 431.925 86.501 432.835C88.1179 433.744 89.9621 434.199 92.0337 434.199C94.1053 434.199 95.9495 433.744 97.5663 432.835C99.1832 431.875 100.446 430.536 101.356 428.818C102.265 427.049 102.72 424.953 102.72 422.527V398.35H108.404V438.974H102.72V431.092L104.008 431.395C103.048 434.022 101.406 436.094 99.0821 437.609C96.7579 439.125 94.08 439.883 91.0484 439.883ZM120.651 454.132V398.35H126.335V407.445L125.425 405.854C127.042 403.277 129.19 401.23 131.867 399.715C134.596 398.199 137.703 397.441 141.19 397.441C145.03 397.441 148.44 398.376 151.421 400.245C154.453 402.064 156.827 404.565 158.545 407.748C160.314 410.932 161.198 414.569 161.198 418.662C161.198 422.704 160.314 426.342 158.545 429.576C156.827 432.759 154.453 435.285 151.421 437.155C148.44 438.974 145.03 439.883 141.19 439.883C137.703 439.883 134.545 439.1 131.716 437.534C128.937 435.917 126.84 433.643 125.425 430.713L126.335 429.879V454.132H120.651ZM140.886 434.199C143.615 434.199 146.04 433.517 148.162 432.153C150.335 430.788 152.027 428.944 153.24 426.62C154.503 424.245 155.135 421.593 155.135 418.662C155.135 415.681 154.503 413.028 153.24 410.704C152.027 408.38 150.335 406.536 148.162 405.171C146.04 403.807 143.615 403.125 140.886 403.125C138.158 403.125 135.682 403.807 133.459 405.171C131.286 406.536 129.543 408.405 128.23 410.78C126.966 413.104 126.335 415.732 126.335 418.662C126.335 421.593 126.966 424.245 128.23 426.62C129.543 428.944 131.286 430.788 133.459 432.153C135.682 433.517 138.158 434.199 140.886 434.199ZM171.758 454.132V398.35H177.442V407.445L176.533 405.854C178.15 403.277 180.297 401.23 182.975 399.715C185.703 398.199 188.811 397.441 192.297 397.441C196.137 397.441 199.548 398.376 202.529 400.245C205.56 402.064 207.935 404.565 209.653 407.748C211.421 410.932 212.305 414.569 212.305 418.662C212.305 422.704 211.421 426.342 209.653 429.576C207.935 432.759 205.56 435.285 202.529 437.155C199.548 438.974 196.137 439.883 192.297 439.883C188.811 439.883 185.653 439.1 182.823 437.534C180.044 435.917 177.947 433.643 176.533 430.713L177.442 429.879V454.132H171.758ZM191.994 434.199C194.722 434.199 197.148 433.517 199.27 432.153C201.442 430.788 203.135 428.944 204.348 426.62C205.611 424.245 206.242 421.593 206.242 418.662C206.242 415.681 205.611 413.028 204.348 410.704C203.135 408.38 201.442 406.536 199.27 405.171C197.148 403.807 194.722 403.125 191.994 403.125C189.265 403.125 186.79 403.807 184.566 405.171C182.394 406.536 180.651 408.405 179.337 410.78C178.074 413.104 177.442 415.732 177.442 418.662C177.442 421.593 178.074 424.245 179.337 426.62C180.651 428.944 182.394 430.788 184.566 432.153C186.79 433.517 189.265 434.199 191.994 434.199ZM241.889 439.883C238.049 439.883 234.562 438.974 231.43 437.155C228.297 435.285 225.796 432.759 223.926 429.576C222.108 426.342 221.198 422.679 221.198 418.586C221.198 414.544 222.108 410.932 223.926 407.748C225.745 404.565 228.196 402.064 231.278 400.245C234.411 398.376 237.948 397.441 241.889 397.441C245.83 397.441 249.341 398.35 252.423 400.169C255.556 401.988 258.007 404.489 259.775 407.673C261.594 410.856 262.503 414.494 262.503 418.586C262.503 422.729 261.569 426.418 259.699 429.652C257.83 432.835 255.329 435.336 252.196 437.155C249.114 438.974 245.678 439.883 241.889 439.883ZM241.889 434.199C244.617 434.199 247.068 433.517 249.24 432.153C251.463 430.788 253.207 428.919 254.47 426.544C255.783 424.169 256.44 421.517 256.44 418.586C256.44 415.656 255.783 413.028 254.47 410.704C253.207 408.38 251.463 406.536 249.24 405.171C247.068 403.807 244.617 403.125 241.889 403.125C239.16 403.125 236.684 403.807 234.461 405.171C232.289 406.536 230.545 408.38 229.232 410.704C227.918 413.028 227.261 415.656 227.261 418.586C227.261 421.517 227.918 424.169 229.232 426.544C230.545 428.919 232.289 430.788 234.461 432.153C236.684 433.517 239.16 434.199 241.889 434.199ZM273.085 438.974V398.35H278.769V405.02L278.011 404.035C278.971 402.115 280.411 400.599 282.331 399.487C284.302 398.376 286.676 397.82 289.455 397.82H292.032V403.504H288.47C285.539 403.504 283.19 404.414 281.422 406.233C279.653 408.052 278.769 410.628 278.769 413.963V438.974H273.085ZM314.787 439.428C311.149 439.428 308.344 438.367 306.374 436.245C304.403 434.123 303.418 431.092 303.418 427.15V404.035H295.915V398.35H297.81C299.528 398.35 300.892 397.795 301.902 396.683C302.913 395.521 303.418 394.081 303.418 392.363V388.953H309.102V398.35H318.046V404.035H309.102V427.15C309.102 428.515 309.304 429.727 309.709 430.788C310.113 431.799 310.795 432.607 311.755 433.214C312.766 433.82 314.104 434.123 315.772 434.123C316.176 434.123 316.656 434.098 317.212 434.047C317.768 433.997 318.248 433.946 318.652 433.896V438.974C318.046 439.125 317.363 439.226 316.606 439.277C315.848 439.378 315.241 439.428 314.787 439.428ZM346.202 439.883C342.412 439.883 338.976 438.974 335.894 437.155C332.863 435.285 330.463 432.734 328.694 429.5C326.926 426.266 326.042 422.603 326.042 418.51C326.042 414.418 326.901 410.805 328.619 407.673C330.336 404.489 332.661 401.988 335.591 400.169C338.572 398.35 341.907 397.441 345.595 397.441C348.526 397.441 351.128 397.997 353.402 399.108C355.726 400.169 357.696 401.635 359.313 403.504C360.93 405.323 362.168 407.395 363.027 409.719C363.886 411.993 364.315 414.342 364.315 416.767C364.315 417.273 364.29 417.854 364.24 418.51C364.189 419.117 364.113 419.748 364.012 420.405H329.68V415.1H360.753L358.025 417.374C358.48 414.595 358.151 412.119 357.04 409.946C355.979 407.723 354.438 405.98 352.416 404.717C350.395 403.403 348.122 402.746 345.595 402.746C343.069 402.746 340.72 403.403 338.547 404.717C336.425 406.03 334.758 407.875 333.545 410.249C332.332 412.574 331.852 415.353 332.105 418.586C331.852 421.82 332.358 424.649 333.621 427.075C334.934 429.449 336.703 431.294 338.926 432.607C341.2 433.921 343.625 434.578 346.202 434.578C349.183 434.578 351.684 433.87 353.705 432.456C355.726 431.041 357.368 429.273 358.631 427.15L363.482 429.727C362.673 431.546 361.435 433.239 359.768 434.805C358.101 436.321 356.105 437.559 353.781 438.519C351.507 439.428 348.981 439.883 346.202 439.883ZM393.235 439.883C389.445 439.883 386.035 438.974 383.003 437.155C379.972 435.285 377.572 432.759 375.803 429.576C374.085 426.342 373.226 422.704 373.226 418.662C373.226 414.569 374.085 410.932 375.803 407.748C377.572 404.565 379.946 402.064 382.928 400.245C385.959 398.376 389.395 397.441 393.235 397.441C396.721 397.441 399.829 398.199 402.557 399.715C405.285 401.23 407.433 403.277 408.999 405.854L408.09 407.445V381.601H413.774V438.974H408.09V429.879L408.999 430.713C407.584 433.643 405.462 435.917 402.633 437.534C399.854 439.1 396.721 439.883 393.235 439.883ZM393.538 434.199C396.266 434.199 398.717 433.517 400.89 432.153C403.113 430.788 404.856 428.944 406.119 426.62C407.433 424.245 408.09 421.593 408.09 418.662C408.09 415.732 407.433 413.104 406.119 410.78C404.856 408.405 403.113 406.536 400.89 405.171C398.717 403.807 396.266 403.125 393.538 403.125C390.86 403.125 388.435 403.807 386.262 405.171C384.09 406.536 382.372 408.38 381.109 410.704C379.896 413.028 379.29 415.681 379.29 418.662C379.29 421.593 379.896 424.245 381.109 426.62C382.372 428.944 384.064 430.788 386.186 432.153C388.359 433.517 390.81 434.199 393.538 434.199ZM459.975 439.883C456.489 439.883 453.331 439.1 450.501 437.534C447.722 435.917 445.625 433.643 444.211 430.713L445.12 429.879V438.974H439.436V381.601H445.12V407.445L444.211 405.854C445.828 403.277 447.975 401.23 450.653 399.715C453.381 398.199 456.489 397.441 459.975 397.441C463.815 397.441 467.225 398.376 470.207 400.245C473.238 402.064 475.613 404.565 477.331 407.748C479.099 410.932 479.983 414.569 479.983 418.662C479.983 422.704 479.099 426.342 477.331 429.576C475.613 432.759 473.238 435.285 470.207 437.155C467.225 438.974 463.815 439.883 459.975 439.883ZM459.672 434.199C462.4 434.199 464.825 433.517 466.948 432.153C469.12 430.788 470.813 428.944 472.025 426.62C473.289 424.245 473.92 421.593 473.92 418.662C473.92 415.681 473.289 413.028 472.025 410.704C470.813 408.38 469.12 406.536 466.948 405.171C464.825 403.807 462.4 403.125 459.672 403.125C456.943 403.125 454.468 403.807 452.244 405.171C450.072 406.536 448.329 408.405 447.015 410.78C445.752 413.104 445.12 415.732 445.12 418.662C445.12 421.593 445.752 424.245 447.015 426.62C448.329 428.944 450.072 430.788 452.244 432.153C454.468 433.517 456.943 434.199 459.672 434.199ZM490.637 455.647C489.829 455.647 488.995 455.572 488.136 455.42C487.328 455.319 486.519 455.117 485.711 454.814V449.508C486.216 449.559 486.848 449.635 487.605 449.736C488.414 449.887 489.222 449.963 490.031 449.963C492.506 449.963 494.401 449.433 495.715 448.372C497.029 447.361 498.317 445.39 499.58 442.46L502.157 436.397L502.005 441.399L484.801 398.35H490.94L505.037 433.896H503.445L517.466 398.35H523.757L505.189 444.127C504.38 446.098 503.344 447.967 502.081 449.736C500.869 451.504 499.328 452.919 497.458 453.98C495.589 455.092 493.315 455.647 490.637 455.647Z" fill="black"/>
<path d="M619.164 371.76L631.21 448.336H607.979L606.688 437.473H581.629L575.714 448.336H551.515L596.041 371.76H619.164ZM602.709 396.066C600.773 400.799 598.084 406.284 594.643 412.737L590.233 420.911H604.968L603.462 407.252C603.032 403.81 602.709 400.153 602.709 396.066ZM654.192 371.76H689.254C692.05 371.76 694.416 371.867 696.352 371.975C698.396 372.19 700.654 372.405 703.02 372.835C705.386 373.266 707.43 373.911 709.043 374.771C710.764 375.739 712.27 376.922 713.775 378.32C715.281 379.719 716.357 381.547 717.002 383.806C717.755 386.064 718.077 388.645 718.077 391.549C718.077 397.249 716.572 402.089 713.345 406.069C710.226 410.048 705.924 412.414 700.439 413.059C703.666 414.457 705.924 416.393 707 418.975C708.075 421.556 708.505 424.997 708.505 429.084C708.398 435.43 708.398 438.764 708.398 439.194C708.398 443.604 708.72 446.615 709.366 448.336H686.457C686.027 446.83 685.812 445.109 685.812 443.174C685.812 442.206 685.812 440.7 685.92 438.549C686.027 436.505 686.135 434.892 686.135 433.817C686.135 429.084 685.382 425.75 684.091 424.029C682.693 422.309 679.682 421.448 675.057 421.448H666.883L661.291 448.336H638.06L654.192 371.76ZM673.659 389.506L670.325 405.208H683.769C686.995 405.208 689.576 404.563 691.512 403.057C693.556 401.551 694.524 399.293 694.524 396.174C694.524 391.764 691.19 389.506 684.522 389.506H673.659ZM795.153 371.76L790.958 391.227H769.878L757.725 448.336H734.279L746.432 391.227H724.707L728.794 371.76H795.153ZM839.228 371.76L851.274 448.336H828.043L826.752 437.473H801.693L795.778 448.336H771.579L816.105 371.76H839.228ZM822.773 396.066C820.837 400.799 818.148 406.284 814.707 412.737L810.297 420.911H825.032L823.526 407.252C823.096 403.81 822.773 400.153 822.773 396.066ZM927.924 371.76L916.631 424.675C914.803 433.494 911.361 439.947 906.199 444.034C901.144 448.121 894.261 450.164 885.549 450.164C877.483 450.164 871.245 448.443 866.728 444.894C862.21 441.345 859.952 436.398 859.952 430.052C859.952 426.718 860.597 422.094 861.78 416.178H882.968C881.892 421.556 881.247 424.997 881.247 426.718C881.247 430.16 883.075 431.881 886.624 431.881C887.27 431.881 887.915 431.773 888.345 431.666C888.883 431.558 889.313 431.343 889.743 431.128C890.174 430.805 890.604 430.59 890.819 430.375C891.142 430.16 891.464 429.73 891.679 429.192C891.894 428.654 892.11 428.332 892.325 428.116C892.54 427.901 892.647 427.364 892.862 426.718C893.078 425.965 893.185 425.535 893.185 425.32C893.185 425.105 893.293 424.567 893.508 423.707C893.723 422.846 893.83 422.416 893.83 422.309L904.585 371.76H927.924ZM986.253 371.76L998.298 448.336H975.067L973.777 437.473H948.717L942.802 448.336H918.603L963.129 371.76H986.253ZM969.797 396.066C967.861 400.799 965.173 406.284 961.731 412.737L957.321 420.911H972.056L970.55 407.252C970.12 403.81 969.797 400.153 969.797 396.066ZM1076.99 394.991L1055.05 395.098C1054.62 392.302 1053.65 390.366 1052.15 389.183C1050.64 388 1048.38 387.462 1045.37 387.462C1042.79 387.462 1040.64 388 1039.03 389.075C1037.52 390.151 1036.66 391.549 1036.66 393.27C1036.66 394.668 1037.31 395.851 1038.49 396.712C1039.67 397.572 1042.04 398.432 1045.59 399.4C1054.08 401.659 1059.89 403.702 1062.9 405.423C1069.79 409.295 1073.12 415.21 1073.12 423.277C1073.12 427.794 1072.15 431.881 1070.11 435.43C1068.17 438.979 1065.48 441.775 1062.04 443.819C1058.71 445.862 1055.05 447.368 1051.07 448.443C1047.09 449.411 1042.9 449.949 1038.38 449.949C1033.97 449.949 1029.88 449.411 1026.01 448.443C1022.25 447.476 1018.81 445.97 1015.8 444.034C1012.78 442.098 1010.31 439.409 1008.59 435.968C1006.87 432.526 1006.01 428.547 1006.01 424.029V422.631H1029.02C1029.02 429.299 1032.9 432.634 1040.64 432.634C1043.65 432.634 1046.12 431.988 1047.95 430.805C1049.67 429.622 1050.64 428.009 1050.64 425.965C1050.64 425.32 1050.53 424.782 1050.43 424.352C1050.32 423.922 1050.1 423.492 1049.78 423.062C1049.35 422.631 1049.03 422.309 1048.71 421.986C1048.38 421.663 1047.85 421.341 1047.2 421.018C1046.55 420.695 1045.91 420.373 1045.37 420.158C1044.83 419.943 1044.08 419.62 1043.01 419.297C1041.93 418.975 1040.96 418.759 1040.32 418.544C1039.67 418.329 1038.6 418.007 1037.2 417.576C1035.69 417.146 1034.51 416.716 1033.65 416.501C1027.63 414.673 1023 412.199 1019.56 408.972C1016.12 405.746 1014.4 401.336 1014.4 395.636C1014.4 391.334 1015.26 387.57 1017.09 384.128C1018.91 380.794 1021.39 378.105 1024.4 376.169C1027.41 374.233 1030.85 372.835 1034.51 371.76C1038.17 370.792 1042.04 370.254 1046.12 370.254C1056.23 370.254 1063.87 372.298 1069.14 376.385C1074.3 380.471 1076.99 386.494 1076.99 394.345V394.991ZM1139.26 371.76L1151.31 448.336H1128.08L1126.79 437.473H1101.73L1095.81 448.336H1071.61L1116.14 371.76H1139.26ZM1122.81 396.066C1120.87 400.799 1118.18 406.284 1114.74 412.737L1110.33 420.911H1125.07L1123.56 407.252C1123.13 403.81 1122.81 400.153 1122.81 396.066Z" fill="black"/>
<defs>
<linearGradient id="paint0_linear_567_1205" x1="955.379" y1="21.9396" x2="875.189" y2="368.595" gradientUnits="userSpaceOnUse">
<stop offset="0.00646752" stop-color="#3EC6FF"/>
<stop offset="1" stop-color="#1A71FD"/>
</linearGradient>
<linearGradient id="paint1_linear_567_1205" x1="157.897" y1="21.3894" x2="-53.646" y2="207.027" gradientUnits="userSpaceOnUse">
<stop offset="0.00646752" stop-color="#3EC6FF"/>
<stop offset="1" stop-color="#1A71FD"/>
</linearGradient>
<linearGradient id="paint2_linear_567_1205" x1="478.065" y1="43.0162" x2="278.584" y2="224.798" gradientUnits="userSpaceOnUse">
<stop offset="0.00646752" stop-color="#3EC6FF"/>
<stop offset="1" stop-color="#1A71FD"/>
</linearGradient>
<linearGradient id="paint3_linear_567_1205" x1="478.065" y1="43.0162" x2="278.584" y2="224.798" gradientUnits="userSpaceOnUse">
<stop offset="0.00646752" stop-color="#3EC6FF"/>
<stop offset="1" stop-color="#1A71FD"/>
</linearGradient>
<linearGradient id="paint4_linear_567_1205" x1="478.065" y1="43.0162" x2="278.584" y2="224.798" gradientUnits="userSpaceOnUse">
<stop offset="0.00646752" stop-color="#3EC6FF"/>
<stop offset="1" stop-color="#1A71FD"/>
</linearGradient>
</defs>
</svg>
