<svg width="752" height="696" viewBox="0 0 752 696" fill="none" xmlns="http://www.w3.org/2000/svg">
<path fill-rule="evenodd" clip-rule="evenodd" d="M254.555 278.4C268.782 278.4 280.568 289.176 283.632 303.069C301.225 382.853 363.186 472.812 469.375 573.082C475.004 578.398 478.258 585.798 478.258 593.541V668.16C478.258 683.472 446.832 696 431.52 696C416.208 696 361.92 683.472 361.92 668.16V528.96H278.4V668.16C278.4 683.472 265.872 696 250.56 696H60.6575C45.3455 696 32.8175 683.472 32.8175 668.16V528.96H27.8063C10.2671 528.96 -2.81772 512.813 0.523082 495.552L28.3631 300.672C30.8687 287.866 42.2831 278.4 55.6463 278.4L254.555 278.4ZM88.4975 640.32H194.88V528.96H88.4975V640.32Z" fill="white"/>
<path fill-rule="evenodd" clip-rule="evenodd" d="M306.24 228.288C306.24 89.6448 412.032 0 528.96 0C645.888 0 751.68 89.6448 751.68 228.288C751.68 316.819 683.472 420.941 547.613 540.931C537.034 550.118 521.165 550.118 510.586 540.931C374.448 420.941 306.24 316.819 306.24 228.288ZM582.968 322.283L528.96 289.618L474.952 322.153C465.061 328.14 452.958 319.29 455.561 308.098L469.876 246.672L422.115 205.288C413.396 197.74 418.081 183.424 429.533 182.513L492.391 177.178L516.987 119.265C521.412 108.724 536.508 108.724 540.933 119.265L565.529 177.308L628.387 182.643C639.839 183.554 644.524 197.87 635.805 205.418L588.043 246.802L602.359 308.228C604.961 319.42 592.858 328.27 582.968 322.283Z" fill="white"/>
</svg>
