<svg width="2885" height="1028" viewBox="0 0 2885 1028" fill="none" xmlns="http://www.w3.org/2000/svg">
<path fill-rule="evenodd" clip-rule="evenodd" d="M258.214 282.402C272.646 282.402 284.601 293.333 287.709 307.426C305.556 388.357 368.407 479.609 476.122 581.321C481.833 586.713 485.133 594.22 485.133 602.074V677.765C485.133 693.298 453.256 706.006 437.723 706.006C422.191 706.006 367.123 693.298 367.123 677.765V536.564H282.402V677.765C282.402 693.298 269.694 706.006 254.162 706.006H61.5294C45.9972 706.006 33.2891 693.298 33.2891 677.765V536.564H28.2059C10.4146 536.564 -2.85835 520.185 0.530478 502.676L28.7707 304.995C31.3123 292.004 42.8908 282.402 56.4461 282.402L258.214 282.402ZM89.7696 649.525H197.682V536.564H89.7696V649.525Z" fill="white"/>
<path fill-rule="evenodd" clip-rule="evenodd" d="M310.633 231.57C310.633 90.9335 417.946 0 536.555 0C655.164 0 762.476 90.9335 762.476 231.57C762.476 321.374 693.288 426.992 555.476 548.708C544.744 558.027 528.647 558.027 517.916 548.708C379.821 426.992 310.633 321.374 310.633 231.57ZM401.627 218.916L362.889 192.419C360.067 190.489 361.379 186.073 364.798 185.998L492.854 183.168C494.358 183.135 495.674 182.149 496.129 180.716L534.422 60.1911C535.462 56.9183 540.094 56.9213 541.13 60.1956L579.225 180.655C579.688 182.118 581.045 183.112 582.58 183.112H694.488C694.773 183.112 695.046 183.226 695.248 183.427C695.596 183.775 695.39 184.371 694.901 184.43L404.034 219.505C403.187 219.607 402.331 219.398 401.627 218.916ZM609.456 262.645L700.787 198.29C702.895 196.805 702.516 193.573 700.122 192.615C698.669 192.034 697.052 192.01 695.583 192.548L370.664 311.53C368.374 312.563 369.456 316.016 371.926 315.558L442.536 302.472C448.606 301.347 453.698 307.071 451.875 312.968L430.963 380.617C428.609 388.235 437.4 394.399 443.759 389.589L532.487 322.472C535.394 320.273 539.403 320.254 542.331 322.426L629.82 387.328C636.287 392.125 645.076 385.715 642.484 378.092L606.412 271.999C605.24 268.551 606.479 264.743 609.456 262.645ZM349.56 255.446L694.793 186.893C695.008 186.85 695.232 186.895 695.414 187.016C696 187.407 695.864 188.302 695.19 188.502L459.264 258.413C455.466 259.539 451.527 257.14 450.783 253.25C450.131 249.84 446.981 247.493 443.527 247.845L349.751 257.387C348.566 257.387 348.398 255.677 349.56 255.446Z" fill="white"/>
<path d="M1014.73 589.39C1022.53 591.618 1032.55 593.288 1044.8 594.402C1057.05 594.959 1068.75 595.238 1079.89 595.238C1102.17 595.238 1120.54 590.782 1135.02 581.871C1150.06 572.404 1157.58 557.924 1157.58 538.432C1157.58 520.053 1151.45 506.966 1139.2 499.169C1126.95 491.372 1108.29 487.473 1083.23 487.473H1014.73V589.39ZM1014.73 385.557H1075.71C1099.66 385.557 1116.92 381.102 1127.5 372.191C1138.64 363.28 1144.21 350.193 1144.21 332.928C1144.21 317.891 1137.81 305.917 1125 297.007C1112.75 288.096 1094.09 283.641 1069.03 283.641C1060.67 283.641 1050.93 283.919 1039.79 284.476C1029.21 285.033 1020.85 285.868 1014.73 286.982V385.557ZM1069.03 707.179C1059.56 707.179 1048.42 706.9 1035.61 706.343C1022.8 705.786 1009.44 704.672 995.515 703.002C982.149 701.331 968.783 699.103 955.417 696.319C942.05 694.091 929.798 690.749 918.66 686.294C888.029 674.599 872.714 654.271 872.714 625.311V235.188C872.714 223.493 875.777 214.582 881.903 208.456C888.586 201.773 897.497 196.482 908.635 192.584C927.57 185.901 951.24 181.167 979.643 178.383C1008.05 175.041 1037.28 173.37 1067.36 173.37C1138.64 173.37 1193.5 185.344 1231.93 209.292C1270.36 233.239 1289.57 270.274 1289.57 320.397C1289.57 345.459 1282.33 367.179 1267.85 385.557C1253.37 403.378 1233.88 416.466 1209.37 424.82C1237.22 432.617 1260.33 446.818 1278.71 467.424C1297.64 488.03 1307.11 513.927 1307.11 545.115C1307.11 600.25 1286.51 641.184 1245.29 667.916C1204.64 694.091 1145.88 707.179 1069.03 707.179ZM1563.27 603.591C1572.74 603.591 1583.04 602.756 1594.18 601.085C1605.88 598.858 1614.51 596.073 1620.08 592.731V525.901L1559.93 530.913C1544.34 532.027 1531.53 535.369 1521.5 540.938C1511.48 546.507 1506.47 554.861 1506.47 565.999C1506.47 577.138 1510.64 586.327 1519 593.567C1527.91 600.25 1542.67 603.591 1563.27 603.591ZM1556.59 275.287C1586.66 275.287 1613.95 278.35 1638.46 284.476C1663.52 290.602 1684.68 300.07 1701.95 312.879C1719.77 325.131 1733.41 341.003 1742.88 360.496C1752.35 379.431 1757.08 401.986 1757.08 428.161V615.287C1757.08 629.767 1752.9 641.74 1744.55 651.208C1736.75 660.119 1727.29 667.916 1716.15 674.599C1679.95 696.319 1628.99 707.179 1563.27 707.179C1533.76 707.179 1507.02 704.394 1483.08 698.825C1459.69 693.256 1439.36 684.902 1422.09 673.763C1405.39 662.625 1392.3 648.423 1382.83 631.159C1373.92 613.894 1369.47 593.845 1369.47 571.012C1369.47 532.584 1380.88 503.067 1403.72 482.461C1426.55 461.855 1461.91 449.046 1509.81 444.034L1619.24 432.338V426.491C1619.24 410.34 1612 398.923 1597.52 392.24C1583.6 385 1563.27 381.38 1536.54 381.38C1515.38 381.38 1494.77 383.608 1474.72 388.063C1454.67 392.519 1436.57 398.088 1420.42 404.771C1413.18 399.758 1407.06 392.24 1402.04 382.215C1397.03 371.634 1394.53 360.774 1394.53 349.636C1394.53 335.156 1397.87 323.739 1404.55 315.385C1411.79 306.474 1422.65 298.956 1437.13 292.83C1453.28 286.704 1472.22 282.248 1493.94 279.464C1516.21 276.679 1537.1 275.287 1556.59 275.287ZM1998.88 692.977C1992.75 694.091 1983.56 695.483 1971.31 697.154C1959.62 699.382 1947.64 700.496 1935.39 700.496C1923.14 700.496 1912 699.66 1901.97 697.989C1892.51 696.319 1884.43 692.977 1877.75 687.965C1871.07 682.953 1865.77 676.27 1861.88 667.916C1858.53 659.005 1856.86 647.588 1856.86 633.665V149.144C1862.99 148.03 1871.9 146.638 1883.6 144.967C1895.85 142.74 1908.1 141.626 1920.35 141.626C1932.61 141.626 1943.47 142.461 1952.93 144.132C1962.96 145.803 1971.31 149.144 1977.99 154.157C1984.68 159.169 1989.69 166.13 1993.03 175.041C1996.93 183.395 1998.88 194.533 1998.88 208.456V692.977ZM2240.95 554.304C2240.95 568.784 2245.41 579.087 2254.32 585.213C2263.78 591.339 2276.87 594.402 2293.58 594.402C2301.93 594.402 2310.57 593.845 2319.48 592.731C2328.39 591.061 2336.18 589.111 2342.87 586.884C2347.88 593.01 2352.06 599.971 2355.4 607.768C2359.3 615.008 2361.24 623.919 2361.24 634.5C2361.24 655.663 2353.17 672.928 2337.02 686.294C2321.43 699.66 2293.58 706.343 2253.48 706.343C2204.47 706.343 2166.6 695.205 2139.87 672.928C2113.69 650.651 2100.61 614.451 2100.61 564.328V206.786C2106.73 205.115 2115.36 203.444 2126.5 201.773C2138.2 199.546 2150.45 198.432 2163.26 198.432C2187.76 198.432 2206.7 202.887 2220.07 211.798C2233.99 220.152 2240.95 238.252 2240.95 266.098V319.562H2350.38C2353.73 325.688 2356.79 333.485 2359.57 342.953C2362.92 351.863 2364.59 361.888 2364.59 373.026C2364.59 392.519 2360.13 406.72 2351.22 415.631C2342.87 423.985 2331.45 428.161 2316.97 428.161H2240.95V554.304ZM2859.16 490.815C2859.16 525.344 2853.87 556.253 2843.29 583.542C2832.7 610.274 2817.67 632.83 2798.18 651.208C2779.24 669.586 2756.41 683.509 2729.67 692.977C2702.94 702.445 2673.15 707.179 2640.29 707.179C2607.43 707.179 2577.63 702.166 2550.9 692.142C2524.17 682.117 2501.06 667.916 2481.57 649.537C2462.63 630.602 2447.87 607.768 2437.29 581.036C2426.71 554.304 2421.42 524.23 2421.42 490.815C2421.42 457.957 2426.71 428.161 2437.29 401.429C2447.87 374.697 2462.63 352.142 2481.57 333.763C2501.06 314.828 2524.17 300.348 2550.9 290.324C2577.63 280.299 2607.43 275.287 2640.29 275.287C2673.15 275.287 2702.94 280.577 2729.67 291.159C2756.41 301.184 2779.24 315.663 2798.18 334.599C2817.67 352.977 2832.7 375.532 2843.29 402.265C2853.87 428.997 2859.16 458.514 2859.16 490.815ZM2566.77 490.815C2566.77 524.787 2573.18 550.962 2585.99 569.341C2599.35 587.162 2617.73 596.073 2641.12 596.073C2664.51 596.073 2682.34 586.884 2694.59 568.505C2707.4 550.127 2713.8 524.23 2713.8 490.815C2713.8 457.4 2707.4 431.781 2694.59 413.96C2681.78 395.582 2663.68 386.392 2640.29 386.392C2616.9 386.392 2598.8 395.582 2585.99 413.96C2573.18 431.781 2566.77 457.4 2566.77 490.815Z" fill="white"/>
<path d="M21.8275 1003V801.488H106.76C119.383 801.488 130.293 803.742 139.489 808.25C148.686 812.578 155.718 818.889 160.587 827.184C165.456 835.298 167.89 844.946 167.89 856.126C167.89 865.863 165.366 874.789 160.316 882.904C155.448 890.838 147.784 897.15 137.325 901.838V888.314C146.522 891.92 154.005 896.519 159.776 902.109C165.546 907.518 169.693 913.649 172.218 920.502C174.923 927.354 176.275 934.567 176.275 942.141C176.275 961.075 170.054 975.951 157.612 986.771C145.35 997.59 128.489 1003 107.031 1003H21.8275ZM53.7448 974.599H109.465C120.104 974.599 128.579 971.714 134.891 965.943C141.202 959.993 144.358 952.149 144.358 942.411C144.358 932.493 141.202 924.649 134.891 918.879C128.579 912.928 120.104 909.953 109.465 909.953H53.7448V974.599ZM53.7448 881.822H107.572C116.227 881.822 123.17 879.388 128.399 874.519C133.628 869.47 136.243 862.888 136.243 854.773C136.243 846.659 133.628 840.348 128.399 835.839C123.17 831.331 116.227 829.077 107.572 829.077H53.7448V881.822ZM278.217 1006.25C263.611 1006.25 250.627 1002.91 239.267 996.238C228.087 989.386 219.341 980.189 213.03 968.648C206.718 956.927 203.563 943.854 203.563 929.428C203.563 914.641 206.718 901.568 213.03 890.207C219.521 878.847 228.177 869.921 238.996 863.429C249.816 856.757 262.078 853.421 275.782 853.421C286.782 853.421 296.61 855.314 305.265 859.101C313.921 862.888 321.224 868.117 327.175 874.789C333.126 881.281 337.634 888.765 340.699 897.24C343.945 905.715 345.568 914.731 345.568 924.288C345.568 926.633 345.478 929.067 345.297 931.592C345.117 934.116 344.756 936.46 344.216 938.624H227.636V914.28H326.904L312.298 925.37C314.101 916.535 313.47 908.69 310.405 901.838C307.52 894.805 303.011 889.306 296.88 885.338C290.93 881.191 283.897 879.117 275.782 879.117C267.668 879.117 260.455 881.191 254.144 885.338C247.832 889.306 242.963 895.076 239.537 902.65C236.111 910.043 234.759 919.059 235.48 929.698C234.578 939.616 235.931 948.272 239.537 955.665C243.324 963.058 248.554 968.829 255.225 972.976C262.078 977.123 269.832 979.197 278.487 979.197C287.323 979.197 294.807 977.214 300.938 973.246C307.249 969.279 312.208 964.14 315.814 957.829L340.699 970.001C337.814 976.853 333.306 983.074 327.175 988.664C321.224 994.074 314.011 998.402 305.536 1001.65C297.241 1004.71 288.135 1006.25 278.217 1006.25ZM378.779 1003V856.667H407.991V886.15L405.286 881.822C408.532 872.265 413.762 865.413 420.974 861.265C428.187 856.937 436.843 854.773 446.941 854.773H455.867V882.634H443.154C433.056 882.634 424.851 885.789 418.54 892.101C412.409 898.232 409.344 907.067 409.344 918.608V1003H378.779ZM534.255 1006.25C519.289 1006.25 506.125 1002.55 494.764 995.156C483.584 987.763 475.74 977.845 471.232 965.402L494.764 954.312C498.732 962.607 504.141 969.189 510.994 974.058C518.026 978.927 525.78 981.361 534.255 981.361C541.468 981.361 547.329 979.738 551.837 976.492C556.345 973.246 558.599 968.829 558.599 963.239C558.599 959.632 557.607 956.747 555.624 954.583C553.64 952.239 551.116 950.345 548.05 948.903C545.165 947.46 542.19 946.378 539.124 945.657L516.133 939.165C503.51 935.559 494.043 930.149 487.732 922.936C481.601 915.543 478.535 906.977 478.535 897.24C478.535 888.404 480.789 880.74 485.297 874.248C489.806 867.576 496.027 862.437 503.961 858.831C511.895 855.224 520.821 853.421 530.739 853.421C544.083 853.421 555.985 856.757 566.443 863.429C576.902 869.921 584.295 879.027 588.623 890.748L565.091 901.838C562.206 894.805 557.607 889.215 551.296 885.068C545.165 880.92 538.223 878.847 530.469 878.847C523.797 878.847 518.477 880.47 514.51 883.715C510.543 886.781 508.559 890.838 508.559 895.887C508.559 899.314 509.461 902.199 511.264 904.543C513.067 906.707 515.412 908.51 518.297 909.953C521.182 911.215 524.157 912.297 527.223 913.199L551.026 920.231C563.107 923.657 572.394 929.067 578.886 936.46C585.377 943.673 588.623 952.329 588.623 962.427C588.623 971.083 586.279 978.746 581.591 985.418C577.082 991.91 570.771 997.049 562.657 1000.84C554.542 1004.44 545.075 1006.25 534.255 1006.25ZM665.771 1006.25C655.853 1006.25 647.107 1004.53 639.534 1001.11C632.141 997.5 626.37 992.631 622.223 986.5C618.075 980.189 616.001 972.796 616.001 964.32C616.001 956.386 617.715 949.263 621.141 942.952C624.747 936.641 630.247 931.321 637.64 926.993C645.034 922.666 654.32 919.6 665.501 917.797L716.352 909.412V933.485L671.451 941.329C663.337 942.772 657.386 945.386 653.599 949.173C649.812 952.78 647.919 957.468 647.919 963.239C647.919 968.829 649.993 973.427 654.14 977.033C658.468 980.459 663.968 982.173 670.64 982.173C678.935 982.173 686.148 980.369 692.279 976.763C698.59 973.156 703.459 968.378 706.885 962.427C710.311 956.296 712.024 949.534 712.024 942.141V904.543C712.024 897.33 709.319 891.469 703.91 886.961C698.68 882.273 691.648 879.929 682.812 879.929C674.697 879.929 667.574 882.093 661.443 886.42C655.493 890.568 651.075 895.978 648.189 902.65L622.764 889.937C625.469 882.724 629.886 876.412 636.017 871.003C642.149 865.413 649.271 861.085 657.386 858.019C665.681 854.954 674.427 853.421 683.623 853.421C695.164 853.421 705.352 855.585 714.188 859.913C723.204 864.24 730.147 870.281 735.016 878.035C740.065 885.609 742.589 894.445 742.589 904.543V1003H713.377V976.492L719.598 977.304C716.172 983.254 711.754 988.394 706.344 992.722C701.115 997.049 695.074 1000.39 688.221 1002.73C681.549 1005.07 674.066 1006.25 665.771 1006.25ZM781.708 1003V856.667H810.921V888.314L807.134 883.445C810.199 873.527 815.79 866.044 823.904 860.995C832.019 855.946 841.305 853.421 851.764 853.421C863.485 853.421 873.854 856.577 882.87 862.888C892.067 869.019 898.198 877.224 901.263 887.502L892.608 888.314C896.935 876.593 903.517 867.847 912.353 862.077C921.369 856.306 931.648 853.421 943.189 853.421C953.287 853.421 962.393 855.765 970.508 860.454C978.803 865.142 985.385 871.634 990.253 879.929C995.122 888.224 997.556 897.691 997.556 908.33V1003H966.991V916.715C966.991 909.322 965.639 903.1 962.934 898.051C960.41 892.822 956.803 888.855 952.115 886.15C947.607 883.265 942.287 881.822 936.156 881.822C930.025 881.822 924.615 883.265 919.927 886.15C915.238 888.855 911.542 892.822 908.837 898.051C906.132 903.281 904.78 909.502 904.78 916.715V1003H874.485V916.715C874.485 909.322 873.133 903.1 870.428 898.051C867.903 892.822 864.297 888.855 859.608 886.15C855.1 883.265 849.69 881.822 843.379 881.822C837.248 881.822 831.838 883.265 827.15 886.15C822.462 888.855 818.765 892.822 816.06 898.051C813.535 903.281 812.273 909.502 812.273 916.715V1003H781.708ZM1077.47 1006.25C1067.55 1006.25 1058.81 1004.53 1051.23 1001.11C1043.84 997.5 1038.07 992.631 1033.92 986.5C1029.77 980.189 1027.7 972.796 1027.7 964.32C1027.7 956.386 1029.41 949.263 1032.84 942.952C1036.45 936.641 1041.95 931.321 1049.34 926.993C1056.73 922.666 1066.02 919.6 1077.2 917.797L1128.05 909.412V933.485L1083.15 941.329C1075.04 942.772 1069.09 945.386 1065.3 949.173C1061.51 952.78 1059.62 957.468 1059.62 963.239C1059.62 968.829 1061.69 973.427 1065.84 977.033C1070.17 980.459 1075.67 982.173 1082.34 982.173C1090.63 982.173 1097.85 980.369 1103.98 976.763C1110.29 973.156 1115.16 968.378 1118.58 962.427C1122.01 956.296 1123.72 949.534 1123.72 942.141V904.543C1123.72 897.33 1121.02 891.469 1115.61 886.961C1110.38 882.273 1103.35 879.929 1094.51 879.929C1086.4 879.929 1079.27 882.093 1073.14 886.42C1067.19 890.568 1062.77 895.978 1059.89 902.65L1034.46 889.937C1037.17 882.724 1041.59 876.412 1047.72 871.003C1053.85 865.413 1060.97 861.085 1069.09 858.019C1077.38 854.954 1086.13 853.421 1095.32 853.421C1106.86 853.421 1117.05 855.585 1125.89 859.913C1134.9 864.24 1141.85 870.281 1146.71 878.035C1151.76 885.609 1154.29 894.445 1154.29 904.543V1003H1125.08V976.492L1131.3 977.304C1127.87 983.254 1123.45 988.394 1118.04 992.722C1112.81 997.049 1106.77 1000.39 1099.92 1002.73C1093.25 1005.07 1085.77 1006.25 1077.47 1006.25ZM1229.19 1003L1300.06 801.488H1339.55L1410.42 1003H1376.34L1360.92 957.829H1278.96L1263.28 1003H1229.19ZM1288.16 929.428H1351.18L1315.48 823.938H1324.41L1288.16 929.428ZM1434.73 1003V798.242H1465.3V1003H1434.73ZM1575.01 1006.25C1560.95 1006.25 1548.05 1002.91 1536.33 996.238C1524.79 989.566 1515.59 980.459 1508.74 968.919C1501.89 957.378 1498.46 944.304 1498.46 929.698C1498.46 914.912 1501.89 901.838 1508.74 890.478C1515.59 878.937 1524.79 869.921 1536.33 863.429C1547.87 856.757 1560.77 853.421 1575.01 853.421C1589.44 853.421 1602.33 856.757 1613.69 863.429C1625.23 869.921 1634.34 878.937 1641.01 890.478C1647.86 901.838 1651.29 914.912 1651.29 929.698C1651.29 944.485 1647.86 957.648 1641.01 969.189C1634.16 980.73 1624.96 989.836 1613.42 996.508C1601.88 1003 1589.08 1006.25 1575.01 1006.25ZM1575.01 977.845C1583.67 977.845 1591.33 975.771 1598 971.624C1604.67 967.476 1609.9 961.796 1613.69 954.583C1617.66 947.19 1619.64 938.895 1619.64 929.698C1619.64 920.502 1617.66 912.297 1613.69 905.084C1609.9 897.871 1604.67 892.191 1598 888.043C1591.33 883.896 1583.67 881.822 1575.01 881.822C1566.54 881.822 1558.87 883.896 1552.02 888.043C1545.35 892.191 1540.03 897.871 1536.06 905.084C1532.27 912.297 1530.38 920.502 1530.38 929.698C1530.38 938.895 1532.27 947.19 1536.06 954.583C1540.03 961.796 1545.35 967.476 1552.02 971.624C1558.87 975.771 1566.54 977.845 1575.01 977.845ZM1684.51 1003V798.242H1715.07V935.378L1703.17 932.403L1776.47 856.667H1814.61L1759.43 915.362L1817.05 1003H1781.88L1730.49 925.37L1748.61 922.936L1705.34 968.919L1715.07 948.632V1003H1684.51ZM1885.18 1006.25C1875.26 1006.25 1866.52 1004.53 1858.94 1001.11C1851.55 997.5 1845.78 992.631 1841.63 986.5C1837.48 980.189 1835.41 972.796 1835.41 964.32C1835.41 956.386 1837.12 949.263 1840.55 942.952C1844.15 936.641 1849.65 931.321 1857.05 926.993C1864.44 922.666 1873.73 919.6 1884.91 917.797L1935.76 909.412V933.485L1890.86 941.329C1882.74 942.772 1876.79 945.386 1873.01 949.173C1869.22 952.78 1867.33 957.468 1867.33 963.239C1867.33 968.829 1869.4 973.427 1873.55 977.033C1877.88 980.459 1883.38 982.173 1890.05 982.173C1898.34 982.173 1905.56 980.369 1911.69 976.763C1918 973.156 1922.87 968.378 1926.29 962.427C1929.72 956.296 1931.43 949.534 1931.43 942.141V904.543C1931.43 897.33 1928.73 891.469 1923.32 886.961C1918.09 882.273 1911.06 879.929 1902.22 879.929C1894.1 879.929 1886.98 882.093 1880.85 886.42C1874.9 890.568 1870.48 895.978 1867.6 902.65L1842.17 889.937C1844.88 882.724 1849.29 876.412 1855.43 871.003C1861.56 865.413 1868.68 861.085 1876.79 858.019C1885.09 854.954 1893.83 853.421 1903.03 853.421C1914.57 853.421 1924.76 855.585 1933.6 859.913C1942.61 864.24 1949.55 870.281 1954.42 878.035C1959.47 885.609 1962 894.445 1962 904.543V1003H1932.78V976.492L1939.01 977.304C1935.58 983.254 1931.16 988.394 1925.75 992.722C1920.52 997.049 1914.48 1000.39 1907.63 1002.73C1900.96 1005.07 1893.47 1006.25 1885.18 1006.25ZM2055.21 1006.25C2040.25 1006.25 2027.08 1002.55 2015.72 995.156C2004.54 987.763 1996.7 977.845 1992.19 965.402L2015.72 954.312C2019.69 962.607 2025.1 969.189 2031.95 974.058C2038.98 978.927 2046.74 981.361 2055.21 981.361C2062.43 981.361 2068.29 979.738 2072.79 976.492C2077.3 973.246 2079.56 968.829 2079.56 963.239C2079.56 959.632 2078.57 956.747 2076.58 954.583C2074.6 952.239 2072.07 950.345 2069.01 948.903C2066.12 947.46 2063.15 946.378 2060.08 945.657L2037.09 939.165C2024.47 935.559 2015 930.149 2008.69 922.936C2002.56 915.543 1999.49 906.977 1999.49 897.24C1999.49 888.404 2001.75 880.74 2006.26 874.248C2010.76 867.576 2016.98 862.437 2024.92 858.831C2032.85 855.224 2041.78 853.421 2051.7 853.421C2065.04 853.421 2076.94 856.757 2087.4 863.429C2097.86 869.921 2105.25 879.027 2109.58 890.748L2086.05 901.838C2083.16 894.805 2078.57 889.215 2072.25 885.068C2066.12 880.92 2059.18 878.847 2051.43 878.847C2044.75 878.847 2039.43 880.47 2035.47 883.715C2031.5 886.781 2029.52 890.838 2029.52 895.887C2029.52 899.314 2030.42 902.199 2032.22 904.543C2034.02 906.707 2036.37 908.51 2039.25 909.953C2042.14 911.215 2045.11 912.297 2048.18 913.199L2071.98 920.231C2084.06 923.657 2093.35 929.067 2099.84 936.46C2106.33 943.673 2109.58 952.329 2109.58 962.427C2109.58 971.083 2107.24 978.746 2102.55 985.418C2098.04 991.91 2091.73 997.049 2083.61 1000.84C2075.5 1004.44 2066.03 1006.25 2055.21 1006.25ZM2142.91 1003V856.667H2173.47V1003H2142.91ZM2142.91 836.651V801.488H2173.47V836.651H2142.91ZM2301.93 1003V829.889H2248.38V801.488H2386.33V829.889H2333.58V1003H2301.93ZM2462.17 1006.25C2448.11 1006.25 2435.22 1002.91 2423.5 996.238C2411.95 989.566 2402.76 980.459 2395.91 968.919C2389.05 957.378 2385.63 944.304 2385.63 929.698C2385.63 914.912 2389.05 901.838 2395.91 890.478C2402.76 878.937 2411.95 869.921 2423.5 863.429C2435.04 856.757 2447.93 853.421 2462.17 853.421C2476.6 853.421 2489.49 856.757 2500.85 863.429C2512.39 869.921 2521.5 878.937 2528.17 890.478C2535.03 901.838 2538.45 914.912 2538.45 929.698C2538.45 944.485 2535.03 957.648 2528.17 969.189C2521.32 980.73 2512.12 989.836 2500.58 996.508C2489.04 1003 2476.24 1006.25 2462.17 1006.25ZM2462.17 977.845C2470.83 977.845 2478.49 975.771 2485.17 971.624C2491.84 967.476 2497.07 961.796 2500.85 954.583C2504.82 947.19 2506.8 938.895 2506.8 929.698C2506.8 920.502 2504.82 912.297 2500.85 905.084C2497.07 897.871 2491.84 892.191 2485.17 888.043C2478.49 883.896 2470.83 881.822 2462.17 881.822C2453.7 881.822 2446.04 883.896 2439.18 888.043C2432.51 892.191 2427.19 897.871 2423.22 905.084C2419.44 912.297 2417.54 920.502 2417.54 929.698C2417.54 938.895 2419.44 947.19 2423.22 954.583C2427.19 961.796 2432.51 967.476 2439.18 971.624C2446.04 975.771 2453.7 977.845 2462.17 977.845ZM2571.67 1003V798.242H2602.24V935.378L2590.34 932.403L2663.64 856.667H2701.78L2646.6 915.362L2704.21 1003H2669.05L2617.66 925.37L2635.78 922.936L2592.5 968.919L2602.24 948.632V1003H2571.67ZM2796.48 1006.25C2782.41 1006.25 2769.52 1002.91 2757.8 996.238C2746.26 989.566 2737.06 980.459 2730.21 968.919C2723.36 957.378 2719.93 944.304 2719.93 929.698C2719.93 914.912 2723.36 901.838 2730.21 890.478C2737.06 878.937 2746.26 869.921 2757.8 863.429C2769.34 856.757 2782.23 853.421 2796.48 853.421C2810.9 853.421 2823.8 856.757 2835.16 863.429C2846.7 869.921 2855.81 878.937 2862.48 890.478C2869.33 901.838 2872.76 914.912 2872.76 929.698C2872.76 944.485 2869.33 957.648 2862.48 969.189C2855.63 980.73 2846.43 989.836 2834.89 996.508C2823.35 1003 2810.54 1006.25 2796.48 1006.25ZM2796.48 977.845C2805.13 977.845 2812.8 975.771 2819.47 971.624C2826.14 967.476 2831.37 961.796 2835.16 954.583C2839.13 947.19 2841.11 938.895 2841.11 929.698C2841.11 920.502 2839.13 912.297 2835.16 905.084C2831.37 897.871 2826.14 892.191 2819.47 888.043C2812.8 883.896 2805.13 881.822 2796.48 881.822C2788 881.822 2780.34 883.896 2773.49 888.043C2766.82 892.191 2761.5 897.871 2757.53 905.084C2753.74 912.297 2751.85 920.502 2751.85 929.698C2751.85 938.895 2753.74 947.19 2757.53 954.583C2761.5 961.796 2766.82 967.476 2773.49 971.624C2780.34 975.771 2788 977.845 2796.48 977.845Z" fill="white"/>
</svg>
